<svg xmlns="http://www.w3.org/2000/svg" xmlns:xlink="http://www.w3.org/1999/xlink" xml:space="preserve" width="864.6666671964867" height="877" shape-rendering="geometricPrecision" text-rendering="geometricPrecision" image-rendering="optimizeQuality" fill-rule="evenodd" clip-rule="evenodd"><rect id="backgroundrect" width="100%" height="100%" x="0" y="0" fill="none" stroke="none" class=""/>
 
<g class="currentLayer"><title>Layer 1</title>
  <metadata id="CorelCorpID_0Corel-Layer"/>
  
  
  
  
  
  
  
  
  
  
  
  
  
  
  
  
  
 <g class="" id="svg_1"><path fill="#00458E" fill-rule="nonzero" d="M565.1623681640626,235.88 c0,0 0,-49.3955 0,-49.3955 c0,-10.3701 8.40213,-18.6437 18.779,-18.6437 c10.3724,0 18.7136,8.27356 18.7136,18.6437 c0,0 0,49.3955 0,49.3955 c-2.45523,0 -3.87513,1.41765 -3.87513,3.03605 c0,0 0,2.2217700000000002 0,2.2217700000000002 l-29.7424,0 c0,0 0,-2.2217700000000002 0,-2.2217700000000002 c0,-1.6184 -1.4199000000000002,-3.03605 -3.03605,-3.03605 c0,0 -0.8390850000000001,0 -0.8390850000000001,0 z" id="svg_17" class=""/><path fill="#00458E" fill-rule="nonzero" d="M162.3023681640625,766.426 c0,-58.4529 -22.8177,-92.6535 -65.2423,-92.6535 c-24.5974,0 -44.5629,13.5212 -53.4748,34.9946 c0,0 -0.3563860000000001,0 -0.3563860000000001,0 c1.78193,-10.3397 2.85221,-26.6455 2.85221,-38.5742 c0,0 0,-86.6322 0,-86.6322 l-46.0809,0 c0,0 0,286.251 0,286.251 c20.3196,6.36419 40.7329,9.54572 66.4005,9.54572 c60.9645,0 95.9016,-46.1283 95.9016,-112.931 zm-47.7726,5.16759 c0,48.9128 -18.8941,67.2001 -44.5629,67.2001 c-9.98218,0 -17.4697,-1.19209 -23.8857,-3.57401 c0,0 0,-55.674 0,-55.674 c0,-33.004 14.2599,-63.6205 38.1468,-63.6205 c20.676000000000002,0 30.3018,18.6877 30.3018,55.6684 z" id="svg_12" class=""/><path fill="#00458E" fill-rule="nonzero" d="M352.10236816406245,772.784 c0,-67.9941 -32.4413,-99.0121 -82.7086,-99.0121 c-53.832300000000004,0 -90.5536,44.5347 -90.5536,106.17 c0,70.3862 32.4435,99.4147 82.7097,99.4147 c53.1206,0 90.5524,-44.5403 90.5524,-106.573 zm-47.0576,2.78567 c0,40.1611 -17.1133,60.4435 -39.5712,60.4435 c-26.3827,0 -39.5723,-20.6794 -39.5723,-61.2386 c0,-40.5592 19.9632,-58.0559 40.2851,-58.0559 c26.7368,0 38.8584,20.6794 38.8584,58.851 z" id="svg_13" class=""/><path fill="#00458E" fill-rule="nonzero" d="M534.1023681640627,875.381 c0,0 0,-138.783 0,-138.783 c0,-34.5931 -12.8355,-63.2235 -52.7631,-63.2235 c-28.8774,0 -49.5568,16.3058 -60.2506,39.7641 c0,0 -0.35751400000000005,-0.3969870000000001 -0.35751400000000005,-0.3969870000000001 c1.78193,-10.3386 2.49583,-25.8459 2.49583,-34.9946 c0,0 -43.1373,0 -43.1373,0 l0,197.634 l45.6332,0 c0,0 0,-95.4392 0,-95.4392 c0,-34.592 18.1813,-64.0175 41.3565,-64.0175 c16.7558,0 21.7463,12.3246 21.7463,33.004 c0,0 0,126.453 0,126.453 l45.2768,0 z" id="svg_14" class=""/><path fill="#00458E" fill-rule="nonzero" d="M729.6223681640627,875.381 c0,0 0,-138.783 0,-138.783 c0,-34.5931 -12.8355,-63.2235 -52.7631,-63.2235 c-28.8774,0 -49.5545,16.3058 -60.2506,39.7641 c0,0 -0.35751400000000005,-0.3969870000000001 -0.35751400000000005,-0.3969870000000001 c1.78418,-10.3386 2.49583,-25.8459 2.49583,-34.9946 c0,0 -43.1373,0 -43.1373,0 l0,197.634 l45.6332,0 c0,0 0,-95.4392 0,-95.4392 c0,-34.592 18.1813,-64.0175 41.3554,-64.0175 c16.7569,0 21.7474,12.3246 21.7474,33.004 c0,0 0,126.453 0,126.453 l45.2768,0 z" id="svg_15" class=""/><path fill="#00458E" fill-rule="nonzero" d="M587.3223681640625,51.2902 c0,0 -0.6552530000000001,8.56002 1.3172700000000002,12.31 c6.26607,11.8927 34.5751,6.33825 38.8551,32.1446 c2.90071,17.5024 -2.36726,26.1684 18.9471,35.051 c0,0 -11.0525,15.2547 -11.0525,15.2547 l-5.13038,-0.11052500000000003 l0.025939500000000004,95.2486 c0,0 2.95259,0 2.95259,0 c0.3823250000000001,6.27284 2.23192,10.3138 8.56002,12.963000000000001 c0,0 -5.14616,4.76046 -5.14616,4.76046 l0,32.8732 l32.9454,0 l0,10.0476 l-2.81725,1.05562 c0,0 0.010150200000000002,2.13155 0.010150200000000002,2.13155 c1.71426,22.8301 10.3972,50.5019 19.6587,70.9399 c22.8741,50.4759 60.2811,86.9592 112.808,107.543 c0,0 -6.31119,11.1934 -6.31119,11.1934 l-6.389,-0.08458520000000003 l0.269545,380.76 l88.7863,0 l-0.10263000000000001,-875.351 l-875.505,-0.020300500000000006 l0,510.535 l380.628,0.024811700000000003 l-0.038345300000000006,-15.8637 l-6.00668,0 c0,0 -6.31119,-11.1934 -6.31119,-11.1934 c52.5252,-20.579 89.9355,-57.0713 112.808,-107.543 c8.98295,-19.82 18.1486,-48.7831 19.661,-71.0358 c0,0 0.007894620000000003,-2.03568 0.007894620000000003,-2.03568 l-2.81725,-1.05562 l0,-10.0476 l32.9465,0 l0,-32.8732 c0,0 -5.14729,-4.76046 -5.14729,-4.76046 c6.3281,-2.64921 8.1777,-6.69013 8.56002,-12.963000000000001 c0,0 2.95259,0 2.95259,0 l-0.0067668200000000015,-95.1381 l-4.9206,0 c0,0 -11.2295,-15.2547 -11.2295,-15.2547 c21.3121,-8.88258 16.0464,-17.5486 18.9471,-35.051 c4.28001,-25.8064 32.5901,-20.252 38.8528,-32.1446 c1.97478,-3.74994 1.4278,-12.3303 1.4278,-12.3303 c-2.46876,-1.27103 -4.24054,-3.83453 -4.24054,-6.80065 c0,-3.37777 2.03568,-6.18713 5.0751100000000005,-7.20328 c0,0 0,-11.6908 0,-11.6908 c0,-3.43303 5.14616,-3.43303 5.14616,0 c0,0 0,11.6818 0,11.6818 c3.19732,0.8638970000000001 5.09767,3.88979 5.09767,7.2123 c0,2.97627 -1.59922,5.55443 -4.07475,6.82095 z" id="svg_16" class=""/></g></g></svg>