<?xml version="1.0" encoding="UTF-8" standalone="no"?>
<!-- Created with Inkscape (http://www.inkscape.org/) -->

<svg
   xmlns:dc="http://purl.org/dc/elements/1.1/"
   xmlns:cc="http://creativecommons.org/ns#"
   xmlns:rdf="http://www.w3.org/1999/02/22-rdf-syntax-ns#"
   xmlns:svg="http://www.w3.org/2000/svg"
   xmlns="http://www.w3.org/2000/svg"
   xmlns:sodipodi="http://sodipodi.sourceforge.net/DTD/sodipodi-0.dtd"
   xmlns:inkscape="http://www.inkscape.org/namespaces/inkscape"
   width="300"
   height="300.01028"
   id="svg12413"
   version="1.1"
   inkscape:version="0.48.0 r9654"
   sodipodi:docname="New document 3">
  <defs
     id="defs12415" />
  <sodipodi:namedview
     id="base"
     pagecolor="#ffffff"
     bordercolor="#666666"
     borderopacity="1.0"
     inkscape:pageopacity="0.0"
     inkscape:pageshadow="2"
     inkscape:zoom="1.4"
     inkscape:cx="114.55712"
     inkscape:cy="140.26263"
     inkscape:document-units="px"
     inkscape:current-layer="layer1"
     showgrid="false"
     fit-margin-top="0"
     fit-margin-left="0"
     fit-margin-right="0"
     fit-margin-bottom="0"
     inkscape:window-width="1280"
     inkscape:window-height="750"
     inkscape:window-x="-8"
     inkscape:window-y="-8"
     inkscape:window-maximized="1" />
  <metadata
     id="metadata12418">
    <rdf:RDF>
      <cc:Work
         rdf:about="">
        <dc:format>image/svg+xml</dc:format>
        <dc:type
           rdf:resource="http://purl.org/dc/dcmitype/StillImage" />
        <dc:title></dc:title>
      </cc:Work>
    </rdf:RDF>
  </metadata>
  <g
     inkscape:label="Layer 1"
     inkscape:groupmode="layer"
     id="layer1"
     transform="translate(-339.37262,-93.771505)">
    <g
       transform="matrix(0,10.11868,10.11868,0,-5122.9907,-5177.7087)"
       id="g12430">
      <g
         transform="translate(522.264,554.805)"
         id="g9374">
        <path
           inkscape:connector-curvature="0"
           id="path9376"
           style="fill:#ffffff;fill-opacity:1;fill-rule:evenodd;stroke:none"
           d="m 0,0 c 0,7.738 6.24,14.013 13.935,14.013 7.694,0 13.934,-6.275 13.934,-14.013 0,-7.738 -6.24,-14.013 -13.934,-14.013 C 6.24,-14.013 0,-7.738 0,0" />
      </g>
      <g
         transform="translate(532.798,545.02)"
         id="g9378">
        <path
           inkscape:connector-curvature="0"
           id="path9380"
           style="fill:#023e88;fill-opacity:1;fill-rule:evenodd;stroke:none"
           d="M 0,0 C -2.493,1.082 -4.454,3.525 -5.28,6.535 -5.286,6.56 -5.294,6.584 -5.31,6.584 -4.673,1.971 -2.643,-1.79 0,-3.424 L 0,0 z m 5.925,0 c 2.513,1.092 4.496,3.539 5.31,6.584 C 10.598,1.971 8.568,-1.79 5.925,-3.424 L 5.925,0 z M 2.957,-4.908 c -8.017,0 -14.578,6.556 -14.578,14.575 0,8.023 6.561,14.579 14.578,14.579 8.016,0 14.577,-6.556 14.577,-14.579 0,-8.019 -6.561,-14.575 -14.577,-14.575 z M 0,19.338 c -2.483,-1.078 -4.447,-3.54 -5.278,-6.539 -0.008,-0.033 -0.016,-0.075 -0.032,-0.045 0.637,4.613 2.667,8.374 5.31,10.008 l 0,-3.424 z m 5.925,0 c 2.513,-1.092 4.496,-3.539 5.31,-6.584 -0.637,4.613 -2.667,8.374 -5.31,10.008 l 0,-3.424 z m -0.43,-0.373 -0.002,4.039 c -0.798,0.414 -1.652,0.643 -2.532,0.643 -0.868,0 -1.711,-0.217 -2.504,-0.625 l 0.002,-4.035 c -2.649,-0.95 -4.756,-3.381 -5.591,-6.442 -0.016,-0.085 -0.012,-0.114 0.031,-0.107 0.854,2.833 2.943,5.082 5.56,5.971 l 0,-3.463 c -3.029,-0.862 -5.314,-3.132 -5.946,-4.634 0.701,1.19 3.002,3.236 5.946,4.047 l 0,-4.469 C -3.1,9.839 -5.613,9.696 -5.619,9.669 -5.625,9.643 -3.095,9.502 0.459,9.448 l 0,-4.473 C -2.456,5.772 -4.764,7.714 -5.509,8.936 -4.87,7.453 -2.541,5.249 0.459,4.396 l 0,-3.479 C -2.168,1.796 -4.257,4.041 -5.109,6.874 -5.138,6.937 -5.158,6.886 -5.152,6.864 -4.332,3.771 -2.211,1.309 0.459,0.351 L 0.457,-3.684 c 0.793,-0.408 1.636,-0.625 2.504,-0.625 0.88,0 1.738,0.229 2.536,0.643 L 5.495,0.373 c 2.572,0.95 4.63,3.302 5.501,6.249 0.01,0.033 0.014,0.086 -0.017,0.072 C 10.094,3.966 8.046,1.812 5.495,0.94 L 5.497,4.396 C 8.546,5.263 10.716,7.524 11.28,9.007 10.618,7.781 8.408,5.776 5.476,4.975 l 0.002,4.473 c 3.553,0.054 5.94,0.195 5.94,0.221 0,0.027 -2.381,0.17 -5.94,0.221 l -0.002,4.469 c 2.919,-0.803 5.128,-2.788 5.806,-3.994 -0.585,1.49 -2.763,3.721 -5.787,4.581 l 0.002,3.452 c 2.564,-0.88 4.61,-3.074 5.486,-5.825 0.029,-0.018 0.019,0.126 0.004,0.177 -0.876,2.931 -2.93,5.267 -5.492,6.215" />
      </g>
      <g
         transform="translate(537.795,567.477)"
         id="g9382">
        <path
           inkscape:connector-curvature="0"
           id="path9384"
           style="fill:#00aeef;fill-opacity:1;fill-rule:evenodd;stroke:none"
           d="m 0,0 -4.142,0 0,-25.529 4.138,0 L 0,0" />
      </g>
      <g
         transform="translate(534.548,546.13)"
         id="g9386">
        <path
           inkscape:connector-curvature="0"
           id="path9388"
           style="fill:#ffffff;fill-opacity:1;fill-rule:evenodd;stroke:none"
           d="m 0,0 c 0,0 0,0 0,0.026 0,0 0,0 0,0.025 C 0,0.177 0.102,0.203 0.228,0.355 0.355,0.38 0.533,0.431 0.71,0.431 0.888,0.431 0.938,0.38 1.039,0.355 1.065,0.279 1.09,0.177 1.09,0.051 1.09,0 1.065,-0.101 1.039,-0.101 1.039,-0.203 0.938,-0.203 0.888,-0.253 0.837,-0.253 0.786,-0.304 0.786,-0.304 0.659,-0.38 0.583,-0.431 0.533,-0.558 0.482,-0.634 0.482,-0.735 0.482,-0.938 c 0,-0.076 0,-0.178 0.101,-0.279 0.076,-0.101 0.254,-0.152 0.381,-0.152 0.075,0 0.075,0 0.075,0 0.203,0 0.432,0.076 0.634,0.253 0.228,0.127 0.279,0.305 0.279,0.584 0,0.152 0,0.279 -0.025,0.329 C 1.927,-0.152 1.901,-0.101 1.826,0 1.8,0.026 1.8,0.051 1.8,0.152 c -0.05,0 -0.101,0.025 -0.101,0.051 0,0 0.051,0.101 0.101,0.152 0,0 0.101,0.025 0.127,0.025 0.025,0 0.025,0 0.127,0 C 2.079,0.355 2.079,0.355 2.104,0.355 2.231,0.304 2.282,0.279 2.383,0.203 2.409,0.177 2.485,0.076 2.51,0.026 c 0,-0.026 0,-0.127 0,-0.229 0,0 0.076,-0.05 0.102,-0.101 0,0 0,0 0,-0.051 0,0 0,0 0,-0.025 0.05,-0.051 0.076,-0.152 0.076,-0.203 0,-0.076 0,-0.228 0,-0.355 0,-0.355 -0.102,-0.71 -0.406,-0.989 -0.228,-0.33 -0.609,-0.431 -0.964,-0.431 -0.405,0 -0.735,0.101 -1.014,0.431 -0.304,0.279 -0.431,0.634 -0.431,0.989 0,0.127 0,0.279 0,0.304 0.051,0.076 0.051,0.203 0.077,0.254 C 0,-0.304 0,-0.253 0,-0.203 c 0,0 0.076,0.051 0.076,0.102 L 0,-0.101 0,0 z m -0.127,2.155 c 0,0.203 0,0.431 0.051,0.558 0.076,0.178 0.152,0.254 0.228,0.431 0.152,0.178 0.33,0.228 0.482,0.381 0.254,0.101 0.405,0.177 0.608,0.177 0.026,0 0.026,0 0.076,0 l 0.026,0 c 0.355,0 0.735,-0.177 0.938,-0.38 C 2.586,2.967 2.688,2.586 2.688,2.155 2.688,1.75 2.586,1.395 2.282,1.141 2.054,0.812 1.673,0.735 1.268,0.735 0.888,0.735 0.533,0.812 0.254,1.166 0,1.395 -0.127,1.75 -0.127,2.155 z M 0.482,2.028 c 0,-0.101 0,-0.126 0.101,-0.228 0.051,-0.05 0.127,-0.101 0.305,-0.101 0.05,0 0.151,0 0.202,0.051 0.102,0 0.254,0 0.355,0.05 0.203,0.102 0.355,0.127 0.482,0.228 0.152,0.127 0.177,0.203 0.177,0.33 0,0.076 -0.025,0.152 -0.05,0.228 C 1.927,2.637 1.8,2.713 1.673,2.713 c 0,0 -0.177,-0.076 -0.228,-0.076 -0.101,0 -0.203,0 -0.279,-0.051 C 0.964,2.586 0.837,2.434 0.634,2.383 0.507,2.307 0.482,2.155 0.482,2.028 z M 1.8,5.959 2.383,5.756 C 2.409,5.705 2.485,5.705 2.51,5.68 c 0,0 0.076,-0.026 0.076,-0.051 l 0.026,0 c 0,0 0,0 0,-0.101 0,0 -0.026,-0.076 -0.102,-0.076 C 2.409,5.401 2.282,5.35 2.104,5.249 L 1.496,4.945 c -0.025,0 -0.051,0 -0.101,0 0,-0.051 -0.051,-0.051 -0.051,-0.051 0,-0.051 0.051,-0.102 0.127,-0.102 0.025,0 0.228,0 0.456,0 0.152,0 0.228,0 0.304,0 0,0 0.051,0.051 0.102,0.102 0.05,0.051 0.05,0.051 0.05,0.076 0,0 0.026,0.076 0.127,0.076 0.076,0 0.102,-0.076 0.152,-0.152 0.026,-0.102 0.026,-0.254 0.026,-0.406 0,-0.228 0,-0.33 -0.026,-0.38 C 2.612,4.057 2.586,3.955 2.51,3.955 c -0.025,0 -0.101,0 -0.127,0 0,0 0,0.102 0,0.127 -0.05,0.076 -0.152,0.076 -0.152,0.152 -0.076,0 -0.152,0 -0.177,0 -0.102,0 -0.102,0 -0.102,0 -0.025,0 -0.025,0 -0.025,0 C 1.699,4.26 1.496,4.26 1.344,4.26 c -0.152,0 -0.305,0 -0.456,0 -0.229,0 -0.355,0 -0.406,-0.026 0,0 -0.127,-0.076 -0.178,-0.126 0,0 -0.05,-0.026 -0.076,-0.051 0,-0.102 -0.051,-0.102 -0.076,-0.102 -0.076,0 -0.152,0.127 -0.228,0.203 -0.051,0.102 -0.051,0.33 -0.051,0.482 0,0.152 0,0.305 0,0.33 0.051,0.076 0.077,0.101 0.127,0.152 0,0.101 0.076,0.101 0.076,0.101 0.026,0 0.026,0 0.076,0 l 0.736,0.406 c 0.05,0.025 0.076,0.025 0.151,0.051 l 0,0.127 c 0,0.025 0,0.025 -0.075,0.025 0,0.076 -0.026,0.076 -0.026,0.076 l -0.583,0.33 c -0.051,0 -0.101,0.025 -0.127,0.05 -0.051,0 -0.076,0 -0.076,0 C 0,6.39 -0.05,6.466 -0.076,6.517 c -0.051,0.126 -0.051,0.177 -0.051,0.38 0,0.203 0,0.329 0.051,0.431 C -0.05,7.429 0,7.48 0.152,7.48 c 0,0 0,0 0.025,0 0,0 0.051,0 0.051,-0.051 l 0.026,0 c 0,0 0.05,0 0.05,-0.025 0.051,-0.127 0.178,-0.152 0.279,-0.178 0.127,0 0.33,-0.025 0.609,-0.025 0.05,0 0.126,0 0.152,0 0.051,0 0.127,0 0.152,0.025 0.177,0 0.254,0 0.33,0 0.101,0 0.228,0 0.253,0.026 0.025,0 0.127,0 0.127,0.025 0.025,0 0.025,0.051 0.025,0.051 l 0.051,0 0,0.076 c 0,0.025 0.051,0.025 0.101,0.025 0,0.051 0,0.076 0.102,0.076 0.025,0 0.127,-0.076 0.177,-0.177 0.026,-0.102 0.026,-0.279 0.026,-0.533 0,-0.278 0,-0.456 -0.026,-0.532 C 2.612,6.111 2.586,6.085 2.485,6.085 c -0.076,0 -0.102,0 -0.102,0.026 0,0 -0.05,0.025 -0.101,0.025 0,0.102 0,0.102 0,0.102 -0.051,0.025 -0.076,0.05 -0.178,0.05 -0.05,0 -0.203,0 -0.431,0 -0.126,0 -0.177,0 -0.202,0 -0.026,0 -0.026,0 -0.026,-0.025 0,-0.025 0,-0.025 0,-0.025 0,0 0,0 0,-0.102 0.026,0 0.051,-0.025 0.051,-0.025 C 1.648,6.085 1.699,6.06 1.8,5.959 z m -1.85,3.6 c 0,0.051 0,0.051 0,0.051 0,0 0,0 0,0.05 -0.026,0 -0.026,0.051 -0.026,0.051 0,0.102 0.026,0.203 0.076,0.279 0.152,0.026 0.177,0.051 0.304,0.127 0,0.025 0.051,0.025 0.178,0.051 0,0 0.025,0 0.051,0 0.101,0 0.126,-0.026 0.177,-0.051 0.076,-0.076 0.127,-0.101 0.127,-0.178 0,-0.025 0,-0.025 0,-0.101 C 0.786,9.813 0.786,9.813 0.71,9.737 0.71,9.711 0.71,9.711 0.659,9.66 0.634,9.61 0.583,9.559 0.583,9.559 0.533,9.534 0.482,9.432 0.482,9.407 0.456,9.255 0.355,9.23 0.355,9.128 c 0,-0.051 0,-0.127 0.127,-0.152 0,-0.102 0.025,-0.102 0.101,-0.102 0.051,0 0.127,0.077 0.127,0.127 0.076,0.076 0.127,0.152 0.178,0.254 0,0 0,0.025 0,0.152 0.025,0 0.05,0.076 0.05,0.152 0.101,0.152 0.152,0.279 0.254,0.457 0.126,0.152 0.279,0.228 0.558,0.228 0.304,0 0.481,-0.127 0.659,-0.406 C 2.612,9.61 2.688,9.28 2.688,8.976 c 0,-0.025 0,-0.102 0,-0.152 l 0,-0.051 c 0,-0.177 0,-0.38 -0.076,-0.532 C 2.586,8.114 2.51,7.987 2.485,7.911 2.409,7.911 2.383,7.86 2.282,7.835 2.231,7.809 2.104,7.809 2.079,7.809 1.952,7.784 1.927,7.784 1.927,7.784 c -0.026,0 -0.101,0 -0.127,0 -0.05,0 -0.127,0 -0.127,0.025 -0.025,0 -0.126,0.026 -0.126,0.102 0,0 0.101,0.076 0.126,0.127 0,0 0.077,0.127 0.127,0.127 0,0.05 0.026,0.05 0.101,0.05 0.026,0 0.026,0.026 0.026,0.026 0.127,0.05 0.152,0.126 0.177,0.253 0.102,0.102 0.102,0.178 0.127,0.279 0,0.051 0,0.051 0,0.051 0,0.127 -0.025,0.177 -0.076,0.253 C 2.104,9.128 2.079,9.153 2.054,9.153 1.927,9.153 1.927,9.128 1.901,9.077 1.826,9.027 1.8,8.951 1.8,8.824 1.75,8.773 1.699,8.773 1.699,8.672 1.673,8.596 1.673,8.596 1.673,8.52 1.648,8.418 1.547,8.367 1.496,8.291 1.496,8.241 1.471,8.215 1.395,8.165 1.344,8.038 1.268,7.987 1.192,7.911 1.166,7.911 1.039,7.86 0.964,7.835 c -0.026,0 -0.051,0 -0.076,0 0,-0.026 0,-0.026 -0.051,-0.026 -0.304,0 -0.533,0.102 -0.685,0.356 -0.202,0.202 -0.279,0.431 -0.279,0.811 0,0.051 0,0.101 0,0.152 0,0.102 0,0.127 0.051,0.127 0,0.127 0,0.152 0.026,0.177 0,0.051 0,0.102 0,0.127 z m 1.318,3.499 0.811,0.406 c 0,0 0.025,0 0.076,0.025 0.051,0 0.051,0 0.051,0.051 0.025,0 0.025,0.076 0.025,0.076 l 0.051,0.051 c 0,0.076 0,0.076 0.051,0.101 0.05,0 0.05,0.076 0.076,0.076 0.101,0 0.203,-0.101 0.253,-0.177 0.026,-0.178 0.026,-0.355 0.026,-0.609 0,-0.05 0,-0.05 0,-0.05 l 0,-0.026 c 0,-0.101 0,-0.228 0,-0.38 0,-0.051 0,-0.152 0,-0.203 C 2.662,12.374 2.662,12.272 2.612,12.272 2.586,12.171 2.51,12.145 2.485,12.145 c -0.076,0 -0.102,0 -0.102,0.026 l -0.05,0.101 -0.051,0.026 c 0,0 0,0 0,0.076 0,0 0,0.025 -0.051,0.025 0,0 0,0 -0.025,0 -0.051,0 -0.127,0 -0.127,0 0,-0.025 -0.025,-0.127 -0.025,-0.228 0,-0.051 0,-0.076 0,-0.178 0,-0.025 -0.102,-0.177 -0.102,-0.203 0,-0.202 0.102,-0.253 0.127,-0.405 0,-0.026 0.025,-0.026 0.152,-0.026 0,0 0,0 0.051,0 0,0.026 0,0.026 0,0.051 0,0 0.051,0 0.051,0.127 l 0.05,0.025 c 0,0.026 0.026,0.051 0.102,0.051 0.025,0 0.127,-0.051 0.177,-0.203 0.026,-0.051 0.026,-0.177 0.026,-0.431 0,-0.152 0,-0.33 -0.026,-0.406 -0.05,-0.126 -0.076,-0.152 -0.177,-0.152 -0.076,0 -0.102,0 -0.102,0 0,0.026 -0.05,0.102 -0.05,0.127 l -0.051,0.025 c 0,0 0,0.076 -0.051,0.152 0,0.026 -0.025,0.026 -0.025,0.076 -0.051,0 -0.127,0.026 -0.127,0.077 -0.127,0.05 -0.152,0.05 -0.279,0.05 l -0.608,0.305 c -0.153,0.076 -0.304,0.126 -0.482,0.152 -0.076,0.025 -0.177,0.152 -0.228,0.152 0,0 0,0 -0.026,0 l -0.101,0 c -0.178,0 -0.279,0 -0.405,0.076 -0.077,0.076 -0.077,0.177 -0.077,0.355 0,0.127 0,0.177 0.051,0.304 0.076,0.102 0.152,0.178 0.228,0.254 0.102,0.025 0.33,0.152 0.431,0.228 0.254,0.127 0.456,0.228 0.685,0.304 z m 0.228,-0.963 c 0,0.025 0,0.05 0,0.05 0,0.026 -0.025,0.026 -0.025,0.026 -0.026,0 -0.076,0 -0.127,-0.026 0,-0.025 -0.076,-0.025 -0.152,-0.05 0,0 0,0 -0.026,0 0,-0.051 -0.076,-0.051 -0.076,-0.051 -0.051,-0.051 -0.051,-0.076 -0.126,-0.076 0,0 -0.026,-0.025 -0.026,-0.152 0,0 0,-0.026 0.026,-0.026 0,0 0.075,0 0.075,-0.05 0.026,0 0.026,0 0.026,0 0.025,-0.026 0.025,-0.026 0.101,-0.026 l 0.026,-0.025 c 0.05,0 0.05,-0.076 0.05,-0.076 0.026,0 0.026,0 0.026,0 0.05,0 0.076,0 0.076,0 0.051,0 0.101,-0.025 0.127,-0.025 l 0.025,0.025 c 0,0 0,0 0,0.076 l 0,0.406 z m -1.572,2.789 0,1.014 c 0,0.102 0,0.102 0,0.102 0,0.025 0,0.025 0,0.05 0,0 -0.051,0 -0.051,0.076 l 0,0.076 c 0,0.051 0,0.051 0,0.051 0,0.025 0,0.025 0,0.025 0,0 0,0 0,0.026 0,0.127 0,0.177 0.127,0.304 0.102,0.025 0.152,0.101 0.304,0.177 0,0 0.152,0 0.178,0 0.025,0 0.101,0 0.101,0 0.127,0 0.203,0 0.305,-0.076 0,0 0.025,-0.101 0.025,-0.253 0,0 -0.025,-0.076 -0.025,-0.178 -0.051,0 -0.178,-0.076 -0.254,-0.076 C 0.583,16.126 0.583,16.126 0.533,16.126 0.507,16.05 0.507,16.05 0.482,16.05 l 0,-0.05 c 0,-0.102 0,-0.127 0.025,-0.127 0.026,-0.026 0.127,-0.026 0.203,-0.026 l 1.116,0 c 0.101,0 0.253,0 0.253,0.026 0.076,0 0.127,0.127 0.152,0.152 l 0,0.025 c 0.051,0.076 0.051,0.076 0.102,0.152 0.05,0 0.05,0 0.076,0 0.101,0 0.203,-0.076 0.253,-0.202 0.026,-0.127 0.026,-0.305 0.026,-0.584 0,-0.355 0,-0.608 -0.026,-0.735 C 2.586,14.554 2.51,14.478 2.383,14.478 l -0.101,0 c -0.051,0.076 -0.051,0.127 -0.051,0.152 -0.025,0.076 -0.076,0.102 -0.152,0.178 0,0 -0.152,0 -0.279,0 l -0.532,0.076 c -0.076,0 -0.102,0 -0.203,0 -0.026,0 -0.127,0 -0.177,0 -0.178,0 -0.305,0 -0.355,-0.076 -0.051,0 -0.051,0 -0.051,-0.076 0,-0.026 0,-0.051 0,-0.051 0,-0.051 0.025,-0.051 0.025,-0.051 0.026,0 0.076,-0.025 0.076,-0.076 0.051,0 0.051,0 0.076,0 0.051,-0.076 0.178,-0.127 0.229,-0.228 0,-0.025 0.025,-0.051 0.025,-0.152 0,-0.025 -0.025,-0.127 -0.025,-0.203 C 0.786,13.92 0.71,13.895 0.634,13.895 c -0.051,0 -0.101,0.025 -0.152,0.025 0,0 -0.127,0.051 -0.178,0.051 -0.127,0.076 -0.202,0.178 -0.304,0.203 -0.076,0.101 -0.127,0.152 -0.127,0.253 0,0.051 0,0.051 0,0.051 l 0,0.127 c 0,0.025 0,0.025 0.051,0.076 0,0.051 0,0.127 0,0.203 z m 0.026,3.93 c 0,0 0,0 0,0.051 l 0,0.05 c -0.026,0 -0.026,0 -0.026,0 l 0,0.102 c 0,0.076 0.026,0.152 0.076,0.203 0.152,0.076 0.177,0.126 0.304,0.152 0,0 0.051,0.025 0.178,0.025 0,0 0.025,0 0.051,0 0.101,0 0.126,0 0.177,-0.025 0.076,-0.026 0.127,-0.152 0.127,-0.152 0,-0.051 0,-0.051 0,-0.051 -0.051,-0.076 -0.051,-0.127 -0.127,-0.152 0,0 0,-0.102 -0.051,-0.102 -0.025,0 -0.076,-0.05 -0.076,-0.101 C 0.533,18.789 0.482,18.738 0.482,18.662 0.456,18.51 0.355,18.459 0.355,18.357 c 0,-0.025 0,-0.101 0.127,-0.151 0,-0.077 0.025,-0.077 0.101,-0.077 0.051,0 0.127,0.026 0.127,0.127 0.076,0.076 0.127,0.178 0.178,0.254 0,0 0,0.101 0,0.152 0.025,0.076 0.05,0.101 0.05,0.152 0.101,0.203 0.152,0.355 0.254,0.406 0.126,0.177 0.279,0.304 0.558,0.304 0.304,0 0.481,-0.152 0.659,-0.355 0.203,-0.304 0.279,-0.558 0.279,-0.963 0,-0.051 0,-0.077 0,-0.077 0,-0.076 0,-0.101 0,-0.126 0,-0.127 0,-0.355 -0.076,-0.508 C 2.586,17.343 2.51,17.267 2.485,17.191 2.409,17.191 2.383,17.166 2.282,17.09 2.231,17.039 2.104,17.014 2.079,17.014 c -0.127,0 -0.152,0 -0.152,0 -0.026,0 -0.101,0 -0.127,0 -0.05,0 -0.127,0 -0.127,0 -0.025,0.025 -0.126,0.076 -0.126,0.177 0,0.025 0.101,0.076 0.126,0.101 0,0.051 0.077,0.127 0.127,0.178 0,0 0.026,0.025 0.101,0.025 0.026,0 0.026,0 0.026,0 0.127,0.102 0.152,0.127 0.177,0.203 0.102,0.178 0.102,0.254 0.127,0.355 0,0.102 -0.025,0.203 -0.076,0.279 -0.051,0.025 -0.076,0.102 -0.101,0.102 -0.127,0 -0.127,-0.077 -0.153,-0.102 C 1.826,18.256 1.8,18.206 1.8,18.129 1.75,18.028 1.699,18.003 1.699,17.952 1.673,17.927 1.673,17.876 1.673,17.749 1.648,17.698 1.547,17.622 1.496,17.597 1.496,17.495 1.471,17.47 1.395,17.419 1.344,17.343 1.268,17.267 1.192,17.191 c -0.026,0 -0.153,-0.025 -0.228,-0.101 -0.026,0 -0.051,0 -0.076,0 0,0 0,-0.051 -0.051,-0.051 -0.304,0 -0.533,0.152 -0.685,0.38 -0.202,0.203 -0.279,0.457 -0.279,0.787 0,0.05 0,0.151 0,0.228 0,0 0,0.076 0.051,0.177 0,0 0,0.051 0.026,0.127 0,0.025 0,0.051 0,0.076" />
      </g>
    </g>
  </g>
</svg>
