<svg xmlns="http://www.w3.org/2000/svg" version="1.1" xmlns:xlink="http://www.w3.org/1999/xlink" height="44.67999839782715" width="95.31999969482422">
	<g id="SvgjsG1211" rel="mainfill" name="main_text" fill="#333333" transform="translate(-2.3999996185302734,-11.719999313354492)">
		<path
			d="M4.24 19.72 l0 1.84 l-1.84 0 l0 -1.84 l1.84 0 z M4.24 27.2 l0 20.8 l-1.84 0 l0 -20.8 l1.84 0 z M27.52 48 l-12.08 -13.64 l-4.44 4.72 l0 8.92 l-1.92 0 l0 -28 l1.92 0 l0 16.56 l15.52 -16.56 l2.4 0 l-12.28 13.08 l13.2 14.92 l-2.32 0 z M43.04 26.88 c4.12 0 8 2.6 8 8.96 l0 12.16 l-1.84 0 l0 -12.24 c0 -4.92 -2.84 -7.2 -6.4 -7.2 c-4.16 0 -7.16 3.76 -7.72 6.84 l0 12.6 l-1.84 0 l0 -28.28 l1.84 0 l0 12.88 c0.4 -1.64 3.16 -5.72 7.96 -5.72 z M64.76 26.84 c3.64 0 6.88 1.76 8.48 5.16 l0 -4.8 l1.84 0 l0 20.8 l-1.84 0 l0 -4.76 c-1.6 3.36 -4.84 5.16 -8.48 5.16 c-4.68 0 -10.52 -3.64 -10.52 -10.76 c0 -7.16 5.84 -10.8 10.52 -10.8 z M64.88 28.52 c-3.88 0 -8.8 2.96 -8.8 9.12 c0 6.12 4.92 9.08 8.8 9.08 c4.04 0 8.44 -2.88 8.44 -9.08 c0 -6.24 -4.4 -9.12 -8.44 -9.12 z M89.72000000000001 26.88 c4.12 0 8 2.6 8 8.96 l0 12.16 l-1.84 0 l0 -12.24 c0 -4.92 -2.84 -7.2 -6.4 -7.2 c-4.16 0 -7.16 3.76 -7.72 6.84 l0 12.6 l-1.84 0 l0 -20.8 l1.84 0 l0 5.4 c0.4 -1.64 3.16 -5.72 7.96 -5.72 z"/>
	</g>
</svg>
